HIERARCHY
ROOT Hips
{
	OFFSET 0.000000 0.000000 0.000000
	CHANNELS 6 Xposition Yposition Zposition Zrotation Yrotation Xrotation 
	JOINT LHipJoint
	{
		OFFSET 0.000000 0.000000 0.000000
		CHANNELS 3 Zrotation Yrotation Xrotation
		JOINT LeftUpLeg
		{
			OFFSET 1.363060 -1.794630 0.839290
			CHANNELS 3 Zrotation Yrotation Xrotation
			JOINT LeftLeg
			{
				OFFSET 2.448110 -6.726130 0.000000
				CHANNELS 3 Zrotation Yrotation Xrotation
				JOINT LeftFoot
				{
					OFFSET 2.562200 -7.039590 0.000000
					CHANNELS 3 Zrotation Yrotation Xrotation
					JOINT LeftToeBase
					{
						OFFSET 0.157640 -0.433110 2.322550
						CHANNELS 3 Zrotation Yrotation Xrotation
						End Site
						{
							OFFSET 0.000000 0.000000 0.000000
						}
					}
				}
			}
		}
	}
	JOINT RHipJoint
	{
		OFFSET 0.000000 0.000000 0.000000
		CHANNELS 3 Zrotation Yrotation Xrotation
		JOINT RightUpLeg
		{
			OFFSET -1.305520 -1.794630 0.839290
			CHANNELS 3 Zrotation Yrotation Xrotation
			JOINT RightLeg
			{
				OFFSET -2.542530 -6.985550 0.000000
				CHANNELS 3 Zrotation Yrotation Xrotation
				JOINT RightFoot
				{
					OFFSET -2.568260 -7.056230 0.000000
					CHANNELS 3 Zrotation Yrotation Xrotation
					JOINT RightToeBase
					{
						OFFSET -0.164730 -0.452590 2.363150
						CHANNELS 3 Zrotation Yrotation Xrotation
						End Site
						{
							OFFSET 0.000000 0.000000 0.000000
						}
					}
				}
			}
		}
	}
	JOINT LowerBack
	{
		OFFSET 0.000000 0.000000 0.000000
		CHANNELS 3 Zrotation Yrotation Xrotation
		JOINT Spine
		{
			OFFSET 0.028270 2.035590 -0.193380
			CHANNELS 3 Zrotation Yrotation Xrotation
			JOINT Spine1
			{
				OFFSET 0.056720 2.048850 -0.042750
				CHANNELS 3 Zrotation Yrotation Xrotation
				JOINT Neck
				{
					OFFSET 0.000000 0.000000 0.000000
					CHANNELS 3 Zrotation Yrotation Xrotation
					JOINT Neck1
					{
						OFFSET -0.054170 1.746240 0.172020
						CHANNELS 3 Zrotation Yrotation Xrotation
						JOINT Head
						{
							OFFSET 0.104070 1.761360 -0.123970
							CHANNELS 3 Zrotation Yrotation Xrotation
							End Site
							{
								OFFSET 0.000000 0.000000 0.000000
							}
						}
					}
				}
				JOINT LeftShoulder
				{
					OFFSET 0.000000 0.000000 0.000000
					CHANNELS 3 Zrotation Yrotation Xrotation
					JOINT LeftArm
					{
						OFFSET 3.362410 1.200890 -0.311210
						CHANNELS 3 Zrotation Yrotation Xrotation
						JOINT LeftForeArm
						{
							OFFSET 4.983000 -0.000000 -0.000000
							CHANNELS 3 Zrotation Yrotation Xrotation
							JOINT LeftHand
							{
								OFFSET 3.483560 -0.000000 -0.000000
								CHANNELS 3 Zrotation Yrotation Xrotation
								JOINT LeftFingerBase
								{
									OFFSET 0.000000 0.000000 0.000000
									CHANNELS 3 Zrotation Yrotation Xrotation
									JOINT LeftHandIndex1
									{
										OFFSET 0.715260 -0.000000 -0.000000
										CHANNELS 3 Zrotation Yrotation Xrotation
										End Site
										{
											OFFSET 0.000000 0.000000 0.000000
										}
									}
								}
								JOINT LThumb
								{
									OFFSET 0.000000 0.000000 0.000000
									CHANNELS 3 Zrotation Yrotation Xrotation
									End Site
									{
										OFFSET 0.000000 0.000000 0.000000
									}
								}
							}
						}
					}
				}
				JOINT RightShoulder
				{
					OFFSET 0.000000 0.000000 0.000000
					CHANNELS 3 Zrotation Yrotation Xrotation
					JOINT RightArm
					{
						OFFSET -3.136600 1.374050 -0.404650
						CHANNELS 3 Zrotation Yrotation Xrotation
						JOINT RightForeArm
						{
							OFFSET -5.241900 -0.000000 -0.000000
							CHANNELS 3 Zrotation Yrotation Xrotation
							JOINT RightHand
							{
								OFFSET -3.444170 -0.000000 -0.000000
								CHANNELS 3 Zrotation Yrotation Xrotation
								JOINT RightFingerBase
								{
									OFFSET 0.000000 0.000000 0.000000
									CHANNELS 3 Zrotation Yrotation Xrotation
									JOINT RightHandIndex1
									{
										OFFSET -0.622530 -0.000000 -0.000000
										CHANNELS 3 Zrotation Yrotation Xrotation
										End Site
										{
											OFFSET 0.000000 0.000000 0.000000
										}
									}
								}
								JOINT RThumb
								{
									OFFSET 0.000000 0.000000 0.000000
									CHANNELS 3 Zrotation Yrotation Xrotation
									End Site
									{
										OFFSET 0.000000 0.000000 0.000000
									}
								}
							}
						}
					}
				}
			}
		}
	}
}
MOTION
Frames: 8
Frame Time: 0.008333
10.755757 13.137022 14.529003 19.306769 -4.904122 83.229239 -31.674161 -39.330600 -6.374981 9.327540 24.552604 -18.959958 -34.673261 -4.620475 46.023523 7.922888 51.100056 56.984997 0.580800 4.880100 13.566900 19.636586 23.986073 -13.008837 -24.000299 -20.348581 -12.282487 39.481492 12.321851 40.486112 -15.909407 -6.399106 76.742938 -1.329300 -7.301300 20.611200 11.180139 -9.162846 -7.952145 -24.732870 -56.434991 -3.158309 14.052425 22.005736 -1.017901 -1.115929 -18.500088 -3.968577 8.746295 -16.805581 14.910796 7.039900 -8.799300 14.124900 26.998372 -1.982887 -2.783944 -10.782152 -12.821255 -3.461144 87.124567 -74.910185 -78.567330 2.128281 -10.575294 -59.186602 38.342923 -5.906581 2.386100 -7.125000 0.000000 0.000000 16.414600 32.911300 -5.041100 -22.369636 39.969331 -3.441252 0.275928 0.336736 -29.868177 -79.893821 76.506411 -78.586313 1.252423 10.330471 -42.812923 -25.096665 8.274184 -0.953700 7.125000 0.000000 0.000000 -5.262600 -28.231600 -2.155500 
10.750540 13.130791 14.510744 20.163007 -6.698913 85.923429 -32.855563 -40.031719 -8.471170 8.397080 24.649260 -19.944741 -33.612887 -4.678971 46.589192 8.136377 50.177365 56.353610 0.594500 4.936100 13.726400 17.458747 23.315385 -14.676238 -25.587400 -18.943229 -14.064432 38.409582 12.424515 42.637051 -15.872099 -6.185600 76.399922 -1.447200 -7.604800 21.519900 16.957742 -5.724116 -0.774800 -20.845495 -57.322915 -22.336990 11.569084 25.883763 3.436997 -1.471700 -18.659211 -7.551938 9.039520 -16.900110 14.965757 7.084000 -8.814700 14.233800 22.639248 -2.240274 -3.402414 -5.708616 -10.764363 -2.481139 85.288100 -80.505743 -80.185900 1.563714 -10.304196 -59.473652 38.685482 -5.708574 1.970800 -7.125000 0.000000 0.000000 16.604700 32.338100 -5.343900 -18.545160 44.073856 0.436994 -1.909639 -1.956373 -26.655824 -76.010682 75.719013 -80.378015 1.071397 9.955036 -42.842905 -25.820654 8.519005 -1.204600 7.125000 0.000000 0.000000 -5.479200 -27.794200 -2.301800 
10.744744 13.124994 14.495819 20.216689 -6.343770 88.111275 -33.164119 -39.722877 -9.934669 8.822516 24.667460 -21.127378 -32.714849 -4.582587 47.319228 8.316866 49.320582 56.080331 0.595600 4.940800 13.739800 17.250928 22.943741 -16.179334 -26.373180 -17.796997 -15.794488 37.987768 12.241652 43.803455 -15.743871 -6.008698 76.343431 -1.554200 -7.868300 22.314700 17.914262 -3.101800 3.876197 -12.905674 -58.237918 -30.133843 9.158659 27.110894 4.663182 -2.906391 -18.157066 -10.333783 8.805182 -16.905248 14.664727 7.105600 -8.834000 14.322700 19.666883 -2.483886 -4.749731 -1.623478 -9.441891 -2.256681 85.507331 -84.183095 -81.730475 1.083527 -10.033083 -59.739141 38.996356 -5.647603 1.474400 -7.125000 0.000000 0.000000 16.716800 31.672400 -5.663100 -16.374391 44.970841 2.748503 -2.452379 -2.657589 -24.084786 -73.021130 76.039195 -82.234664 1.273345 9.027369 -43.138577 -26.721294 8.027075 -1.437000 7.125000 0.000000 0.000000 -5.733700 -27.400100 -2.463200 
10.738658 13.119633 14.483792 22.888377 0.797422 88.887144 -30.390139 -38.515405 -9.394456 11.175896 24.406846 -21.212087 -32.117113 -4.327717 48.917090 8.092783 48.111045 55.837916 0.574200 4.852700 13.488900 21.178436 23.356648 -16.092034 -25.443984 -16.629582 -16.936930 37.903302 11.926465 43.453122 -16.107263 -5.978045 76.588196 -1.625400 -8.037800 22.828900 4.164902 -0.461707 3.641581 11.907409 -61.117886 -10.036584 2.573110 29.294868 -5.741532 -6.293073 -17.381589 -14.870340 7.551739 -16.700477 12.466467 7.059300 -8.849300 14.392200 15.687330 -1.920889 -7.245785 -1.264903 -6.408545 -4.582503 86.993752 -84.367515 -83.232225 0.707520 -9.608126 -59.963306 39.507637 -5.745083 0.829200 -7.125000 0.000000 0.000000 16.797200 30.821800 -6.051700 -21.961025 42.406595 2.188676 -6.215876 -2.168577 -23.987086 -69.305643 74.360366 -84.258208 1.726793 7.554437 -43.820075 -27.855665 6.816677 -1.623400 7.125000 0.000000 0.000000 -6.004500 -27.095600 -2.624000 
10.731992 13.114561 14.474518 26.788535 13.357146 85.217863 -24.947813 -36.696890 -5.065672 14.505429 23.735959 -19.459831 -31.435907 -4.170585 51.368271 7.870971 46.749983 55.102772 0.531400 4.671000 12.972600 28.203869 24.635903 -12.718641 -22.213413 -15.243113 -15.859347 38.282615 11.422411 41.665235 -16.914010 -6.052847 77.008195 -1.664900 -8.130100 23.109900 -21.183239 2.224245 -4.417467 50.125211 -53.537388 26.592808 -7.317847 34.119592 -19.488840 -11.715783 -16.738496 -17.151513 5.895924 -16.385394 9.671088 6.915200 -8.857800 14.444000 5.004786 0.347978 -9.820243 -7.112096 -8.313922 -3.980593 96.440308 -78.880025 -84.337017 0.510300 -9.605144 -59.709587 39.733147 -6.421067 0.080900 -7.125000 0.000000 0.000000 16.854400 29.847800 -6.485600 -26.356412 36.990669 -1.641619 -13.633348 3.528203 -22.780050 -72.468805 74.824258 -85.554110 1.797430 7.324033 -43.911848 -28.341168 6.809463 -1.767600 7.125000 0.000000 0.000000 -6.273200 -26.869800 -2.776200 
10.724892 13.109779 14.467272 23.520044 14.112715 81.719439 -24.216493 -36.630271 -2.112103 15.899145 22.009436 -19.980237 -29.751063 -4.550394 53.210803 8.929046 46.485216 53.886123 0.480000 4.442800 12.325800 28.099331 24.754778 -11.542962 -19.483658 -14.372908 -13.376053 39.728159 10.553800 39.647945 -16.914350 -5.919096 77.309101 -1.683000 -8.172100 23.237900 -22.080703 6.620381 -8.916322 46.727320 -41.576347 25.792464 -3.871996 31.742560 -12.814687 -9.990507 -16.400339 -11.730106 6.844849 -16.542078 10.860522 6.663500 -8.854400 14.471100 4.175726 -0.945390 -6.270931 -13.568077 -14.080523 1.541320 107.266082 -73.406493 -85.376320 0.073702 -9.817513 -59.290395 39.676631 -7.101233 -0.733300 -7.125000 0.000000 0.000000 16.912400 28.799800 -6.952500 -21.205289 32.114662 -5.145082 -10.711678 10.423203 -18.402535 -79.667645 83.053214 -85.909810 1.343675 8.615812 -43.180480 -28.083118 8.387205 -1.874800 7.125000 0.000000 0.000000 -6.557700 -26.713500 -2.927800 
10.717791 13.105287 14.462055 20.422026 12.613558 80.330470 -24.216458 -36.620087 -1.255300 16.147693 20.922007 -20.793462 -28.794284 -4.771716 53.984629 9.693472 46.578143 53.104180 0.438300 4.248100 11.775900 26.813415 24.496213 -11.476617 -18.010870 -13.661666 -11.927255 40.643151 9.888188 38.036799 -16.898910 -5.765447 77.383742 -1.680000 -8.165100 23.216800 -18.935319 9.746232 -10.110067 38.351170 -33.016065 20.823621 -0.904532 27.108155 -8.957388 -6.783821 -16.191209 -6.871521 7.835686 -16.784086 11.988791 6.320200 -8.846300 14.476300 7.323447 -3.287818 -2.291633 -17.188073 -18.489400 5.427986 113.034640 -69.052511 -86.560728 -0.408613 -9.676839 -58.815288 39.909526 -7.501802 -1.513200 -7.125000 0.000000 0.000000 16.963200 27.806900 -7.394200 -21.345696 27.682756 -8.531667 -4.418558 14.220975 -15.613597 96.963577 89.669948 93.778210 0.799822 9.733554 -42.538535 -28.048193 9.889966 -1.980100 7.125000 0.000000 0.000000 -6.876500 -26.566800 -3.095900 
10.711126 13.101374 14.459302 18.795560 11.786746 79.551173 -24.145348 -36.350343 -0.952879 15.958597 20.684503 -21.096829 -28.683327 -4.608783 54.164670 9.908965 46.870917 52.821051 0.414400 4.132100 11.448500 26.185466 24.149451 -11.242726 -17.328334 -13.050052 -11.170009 41.069206 9.354845 36.844048 -16.971664 -5.628173 77.349583 -1.695100 -8.199800 23.322700 -17.429289 11.637813 -11.031084 34.658558 -27.176647 18.795252 -0.127135 23.754998 -8.058863 -4.790341 -16.031146 -3.886003 8.352777 -16.905593 12.404084 6.139100 -8.848100 14.451600 9.602242 -4.716958 0.229558 -18.549856 -21.243139 7.939795 115.784107 -65.811933 -87.773817 -0.734196 -9.266988 -58.146733 40.422328 -7.732731 -2.125200 -7.125000 0.000000 0.000000 17.015900 27.035300 -7.744600 -23.473542 24.306793 -10.955813 0.972010 17.630696 -13.177709 94.612003 86.088937 93.393012 0.273771 10.503602 -42.005473 -28.302640 11.070389 -2.061100 7.125000 0.000000 0.000000 -7.233100 -26.467700 -3.275700 
